# xmcd CD database file
#
# Track frame offsets:
#	150
#	13349
#	30272
#	45369
#	63558
#	81482
#	99717
#	116600
#	150282
#	168596
#	186078
#	211027
#	228519
#	251131
#	269089
#
# Disc length: 3812 seconds
#
# Revision: 0
# Processed by: cddbd v1.5.2PL0 Copyright (c) Steve Scherf et al.
# Submitted via: CDex 1.70beta3
#
DISCID=c90ee20f
DTITLE=チェッカーズ - COMPLETE THE CHECKERS all singles collection [Disc 1]
DYEAR=1900
DGENRE=ロック
TTITLE0=ギザギザハートの子守唄
TTITLE1=涙のリクエスト
TTITLE2=哀しくてジェラシー
TTITLE3=星屑のステージ
TTITLE4=ジュリアに傷心
TTITLE5=あの娘とスキャンダル
TTITLE6=俺たちのロカビリーナイト
TTITLE7=HEART OF RAINBOW ～愛の虹を渡って～
TTITLE8=神様ヘルプ!
TTITLE9=OH!! POPSTAR
TTITLE10=Song for U.S.A.
TTITLE11=Nana
TTITLE12=I Love you, SAYONARA
TTITLE13=WONDERER
TTITLE14=Blue Rain
EXTD=
EXTT0=
EXTT1=
EXTT2=
EXTT3=
EXTT4=
EXTT5=
EXTT6=
EXTT7=
EXTT8=
EXTT9=
EXTT10=
EXTT11=
EXTT12=
EXTT13=
EXTT14=
PLAYORDER=
